<svg width="200" height="200" viewBox="0 0 200 200" fill="none" xmlns="http://www.w3.org/2000/svg">
<path d="M35.7726 147.369C30.1262 147.369 26 143.786 26 138.791C26 137.379 26.3258 135.751 27.1944 133.362L65.0903 29.4468C67.4791 23.0404 71.4967 20 77.9032 20C83.8753 20 87.7844 22.9318 90.1732 29.3382L140.665 165.72C141.533 168.109 141.859 169.737 141.859 171.149C141.859 176.144 137.733 179.727 132.087 179.727C127.2 179.727 124.377 177.447 122.531 172.235L108.633 133.362H46.631L45.328 139.877C43.482 145.089 40.6589 147.369 35.7726 147.369ZM52.2774 116.748H103.095L78.0118 45.3001H77.3603L52.2774 116.748Z" fill="black"/>
<path d="M135.776 115.551C127.73 115.551 115.796 114.683 115.796 122.5C115.796 132.095 122.517 130.318 134.234 130.318C156.38 130.318 173.13 119.894 173.999 99.5734C173.999 85.557 165.841 77.312 145.204 72.7773L134.234 70.3726C120.728 67.4181 115.449 62.0589 115.449 54.2262C115.449 44.1262 124.979 38.0799 137.32 38.0799C148.015 38.0799 156.173 42.4772 159.601 52.5085C160.698 55.6691 162.618 57.3181 165.772 57.3181C169.063 57.3181 171.394 55.1194 171.394 51.7527C171.394 50.4473 171.257 49.4167 171.051 48.6609C167.486 35.2629 154.186 26.9492 137.662 26.9492C117.163 26.9492 102.766 38.4234 102.766 54.7759C102.766 68.861 111.335 77.8617 131.149 82.1903L142.119 84.5951C155.831 87.6182 158.362 92.4706 158.362 100.784C158.362 110.541 149.214 115.551 135.776 115.551Z" fill="black"/>
</svg>
